{"title":"Underworld Awakening (2012) BRRip 1080p [DD 5.1 Multi-Audio] [En","uid":9809512,"size":3031785523,"categoryP":"video","categoryS":"hd___movies","magnet":"?xt=urn:btih:952198551318e572eafb957b144781d2799ae7f8&amp;dn=Underworld+Awakening+%282012%29+BRRip+1080p+%5BDD+5.1+Multi-Audio%5D+%5BEn&amp;tr=udp%3A%2F%2Ftracker.openbittorrent.com%3A80&amp;tr=udp%3A%2F%2Fopen.demonii.com%3A1337&amp;tr=udp%3A%2F%2Ftracker.coppersurfer.tk%3A6969&amp;tr=udp%3A%2F%2Fexodus.desync.com%3A6969","seeders":2,"leechers":0,"uploader":"SaNRiM","files":-1,"time":1395504372,"description":"Storyline\n\nMankind discover the existence of the Vampire and Lycan species and they begin a war to annihilate the races. When Selene meets with Michael in the harbor, they are hit by a grenade and Selene passes out. Twelve years later, Selene awakes from a cryogenic sleep in the Antigen laboratory and meets the Vampire David. She learns that she had been the subject of the scientist Dr. Jacob Lane and the Vampire and Lycan species have been practically eradicated from Earth. But Selene is still connected to Michael and has visions that she believes that belongs to Michael's sight. However she has a surprise and finds that she has a powerful daughter named Eve that has been raised in the laboratory. Now Selene and David have to protect Eve against the Lycans that intend to use her to inoculate their species against silver.\n\n\n\nTorrent Info\n\nGeneral\n\nUnique ID : 188233628387844266928213101813163341949 (0x8D9C7A67BAA7FFFAA573BBD0F357B87D)\nComplete name : Underworld Awakening (2012) BRRip 1080p [DD 5.1 Multi-Audio] ~SaNRiM~.mkv\nFormat : Matroska\nFormat version : Version 4 / Version 2\nFile size : 2.80 GiB\nDuration : 1h 28mn\nOverall bit rate : 4 532 Kbps\nEncoded date : UTC 2014-03-22 08:44:16\nWriting library : libebml v1.3.0 + libmatroska v1.4.1\n\n\nVideo\n\nID : 1\nFormat : AVC\nFormat/Info : Advanced Video Codec\nFormat profile : &lt;a class=&quot;__cf_email__&quot; href=&quot;/cdn-cgi/l/email-protection&quot; data-cfemail=&quot;c981a0aea18985fde7f9&quot;&gt;[email&amp;#160;protected]&lt;/a&gt;&lt;script cf-hash='f9e31' type=&quot;text/javascript&quot;&gt;\n/* &lt;![CDATA[ */!function(){try{var t=&quot;currentScript&quot;in document?document.currentScript:function(){for(var t=document.getElementsByTagName(&quot;script&quot;),e=t.length;e--;)if(t[e].getAttribute(&quot;cf-hash&quot;))return t[e]}();if(t&amp;&amp;t.previousSibling){var e,r,n,i,c=t.previousSibling,a=c.getAttribute(&quot;data-cfemail&quot;);if(a){for(e=&quot;&quot;,r=parseInt(a.substr(0,2),16),n=2;a.length-n;n+=2)i=parseInt(a.substr(n,2),16)^r,e+=String.fromCharCode(i);e=document.createTextNode(e),c.parentNode.replaceChild(e,c)}}}catch(u){}}();/* ]]&gt; */&lt;/script&gt;\nFormat settings, CABAC : Yes\nFormat settings, ReFrames : 4 frames\nCodec ID : V_MPEG4/ISO/AVC\nDuration : 1h 28mn\nBit rate : 2 650 Kbps\nWidth : 1 920 pixels\nHeight : 800 pixels\nDisplay aspect ratio : 2.40:1\nFrame rate mode : Constant\nFrame rate : 23.976 fps\nColor space : YUV\nChroma subsampling : 4:2:0\nBit depth : 8 bits\nScan type : Progressive\nBits/(Pixel*Frame) : 0.072\nStream size : 1.64 GiB (58%)\nTitle : ~SaNRiM~\nWriting library : x264 core 133 r2334 a3ac64b\nLanguage : English\nDefault : Yes\nForced : No\n\n\nAudio #1\n\nID : 2\nFormat : AC-3\nFormat/Info : Audio Coding 3\nMode extension : CM (complete main)\nFormat settings, Endianness : Big\nCodec ID : A_AC3\nDuration : 1h 28mn\nBit rate mode : Constant\nBit rate : 448 Kbps\nChannel(s) : 6 channels\nChannel positions : Front: L C R, Side: L R, LFE\nSampling rate : 48.0 KHz\nBit depth : 16 bits\nCompression mode : Lossy\nStream size : 284 MiB (10%)\nTitle : ~SaNRiM~\nLanguage : Hindi\nDefault : Yes\nForced : No\n\n\nAudio #2\n\nID : 3\nFormat : AC-3\nFormat/Info : Audio Coding 3\nMode extension : CM (complete main)\nFormat settings, Endianness : Big\nCodec ID : A_AC3\nDuration : 1h 28mn\nBit rate mode : Constant\nBit rate : 448 Kbps\nChannel(s) : 6 channels\nChannel positions : Front: L C R, Side: L R, LFE\nSampling rate : 48.0 KHz\nBit depth : 16 bits\nCompression mode : Lossy\nStream size : 284 MiB (10%)\nTitle : ~SaNRiM~\nLanguage : Tamil\nDefault : No\nForced : No\n\n\nAudio #3\n\nID : 4\nFormat : AC-3\nFormat/Info : Audio Coding 3\nMode extension : CM (complete main)\nFormat settings, Endianness : Big\nCodec ID : A_AC3\nDuration : 1h 28mn\nBit rate mode : Constant\nBit rate : 448 Kbps\nChannel(s) : 6 channels\nChannel positions : Front: L C R, Side: L R, LFE\nSampling rate : 48.0 KHz\nBit depth : 16 bits\nCompression mode : Lossy\nStream size : 284 MiB (10%)\nTitle : ~SaNRiM~\nLanguage : Telugu\nDefault : No\nForced : No\n\n\nAudio #4\n\nID : 5\nFormat : AC-3\nFormat/Info : Audio Coding 3\nMode extension : CM (complete main)\nFormat settings, Endianness : Big\nCodec ID : A_AC3\nDuration : 1h 28mn\nBit rate mode : Constant\nBit rate : 448 Kbps\nChannel(s) : 6 channels\nChannel positions : Front: L C R, Side: L R, LFE\nSampling rate : 48.0 KHz\nBit depth : 16 bits\nCompression mode : Lossy\nStream size : 284 MiB (10%)\nTitle : ~SaNRiM~\nLanguage : English\nDefault : No\nForced : No\n\n\nText #1\n\nID : 6\nFormat : PGS\nMuxing mode : zlib\nCodec ID : S_HDMV/PGS\nCodec ID/Info : The same subtitle format used on BDs/HD-DVDs\nTitle : ~SaNRiM~\nLanguage : Hindi\nDefault : Yes\nForced : No\n\n\nText #2\n\nID : 7\nFormat : PGS\nMuxing mode : zlib\nCodec ID : S_HDMV/PGS\nCodec ID/Info : The same subtitle format used on BDs/HD-DVDs\nTitle : ~SaNRiM~\nLanguage : English\nDefault : No\nForced : No\n\n\nText #3\n\nID : 8\nFormat : PGS\nMuxing mode : zlib\nCodec ID : S_HDMV/PGS\nCodec ID/Info : The same subtitle format used on BDs/HD-DVDs\nTitle : ~SaNRiM~\nLanguage : English\nDefault : No\nForced : No\n\n\n\nScreens\n &lt;a href=&quot;\nhttp://someimage.com/GVSMoUG&quot; rel=&quot;nofollow&quot; target=&quot;_NEW&quot;&gt;\nhttp://someimage.com/GVSMoUG&lt;/a&gt; &lt;a href=&quot;\nhttp://someimage.com/78i6D15&quot; rel=&quot;nofollow&quot; target=&quot;_NEW&quot;&gt;\nhttp://someimage.com/78i6D15&lt;/a&gt; &lt;a href=&quot;\nhttp://someimage.com/4lk4fF7&quot; rel=&quot;nofollow&quot; target=&quot;_NEW&quot;&gt;\nhttp://someimage.com/4lk4fF7&lt;/a&gt; &lt;a href=&quot;\nhttp://someimage.com/rnTYWQ9&quot; rel=&quot;nofollow&quot; target=&quot;_NEW&quot;&gt;\nhttp://someimage.com/rnTYWQ9&lt;/a&gt; &lt;a href=&quot;\nhttp://someimage.com/MFgKwG3&quot; rel=&quot;nofollow&quot; target=&quot;_NEW&quot;&gt;\nhttp://someimage.com/MFgKwG3&lt;/a&gt; &lt;a href=&quot;\nhttp://someimage.com/YCB01FR&quot; rel=&quot;nofollow&quot; target=&quot;_NEW&quot;&gt;\nhttp://someimage.com/YCB01FR&lt;/a&gt; &lt;a href=&quot;\nhttp://someimage.com/H2EYYYa&quot; rel=&quot;nofollow&quot; target=&quot;_NEW&quot;&gt;\nhttp://someimage.com/H2EYYYa&lt;/a&gt; &lt;a href=&quot;\nhttp://someimage.com/HARR0Nw&quot; rel=&quot;nofollow&quot; target=&quot;_NEW&quot;&gt;\nhttp://someimage.com/HARR0Nw&lt;/a&gt; &lt;a href=&quot;\nhttp://someimage.com/Avdpf0X&quot; rel=&quot;nofollow&quot; target=&quot;_NEW&quot;&gt;\nhttp://someimage.com/Avdpf0X&lt;/a&gt; &lt;a href=&quot;\nhttp://someimage.com/gQdPYnw&quot; rel=&quot;nofollow&quot; target=&quot;_NEW&quot;&gt;\nhttp://someimage.com/gQdPYnw&lt;/a&gt; &lt;a href=&quot;\nhttp://someimage.com/TnfHtuP&quot; rel=&quot;nofollow&quot; target=&quot;_NEW&quot;&gt;\nhttp://someimage.com/TnfHtuP&lt;/a&gt; &lt;a href=&quot;\nhttp://someimage.com/NUrnzva&quot; rel=&quot;nofollow&quot; target=&quot;_NEW&quot;&gt;\nhttp://someimage.com/NUrnzva&lt;/a&gt; &lt;a href=&quot;\nhttp://someimage.com/nBabLhx&quot; rel=&quot;nofollow&quot; target=&quot;_NEW&quot;&gt;\nhttp://someimage.com/nBabLhx&lt;/a&gt; &lt;a href=&quot;\nhttp://someimage.com/sFJVjBM&quot; rel=&quot;nofollow&quot; target=&quot;_NEW&quot;&gt;\nhttp://someimage.com/sFJVjBM&lt;/a&gt; &lt;a href=&quot;\nhttp://someimage.com/kHbAvn0&quot; rel=&quot;nofollow&quot; target=&quot;_NEW&quot;&gt;\nhttp://someimage.com/kHbAvn0&lt;/a&gt; &lt;a href=&quot;\nhttp://someimage.com/wI8YelI&quot; rel=&quot;nofollow&quot; target=&quot;_NEW&quot;&gt;\nhttp://someimage.com/wI8YelI&lt;/a&gt; &lt;a href=&quot;\nhttp://someimage.com/Xy38jCB&quot; rel=&quot;nofollow&quot; target=&quot;_NEW&quot;&gt;\nhttp://someimage.com/Xy38jCB&lt;/a&gt; &lt;a href=&quot;\nhttp://someimage.com/eRAB5GC&quot; rel=&quot;nofollow&quot; target=&quot;_NEW&quot;&gt;\nhttp://someimage.com/eRAB5GC&lt;/a&gt; &lt;a href=&quot;\nhttp://someimage.com/9oIGK8Y&quot; rel=&quot;nofollow&quot; target=&quot;_NEW&quot;&gt;\nhttp://someimage.com/9oIGK8Y&lt;/a&gt; &lt;a href=&quot;\nhttp://someimage.com/UjdvD1i&quot; rel=&quot;nofollow&quot; target=&quot;_NEW&quot;&gt;\nhttp://someimage.com/UjdvD1i&lt;/a&gt; &lt;a href=&quot;\nhttp://someimage.com/3Uw9qmo&quot; rel=&quot;nofollow&quot; target=&quot;_NEW&quot;&gt;\nhttp://someimage.com/3Uw9qmo&lt;/a&gt;\n\n\n\n\n                   A BIG THANKS TO SBAZ44 FOR AUDIO\n\n\n\n                  If you like my work please comment\n                          Any request? Just PM me\n                       Please seed long after download\n                         Thank you &amp; enjoy the best\n                                 ~SaNRiM~\t","torrent":{"xt":"urn:btih:952198551318e572eafb957b144781d2799ae7f8","amp;dn":"Underworld+Awakening+%282012%29+BRRip+1080p+%5BDD+5.1+Multi-Audio%5D+%5BEn","amp;tr":["udp%3A%2F%2Ftracker.openbittorrent.com%3A80","udp%3A%2F%2Fopen.demonii.com%3A1337","udp%3A%2F%2Ftracker.coppersurfer.tk%3A6969","udp%3A%2F%2Fexodus.desync.com%3A6969"],"infoHash":"952198551318e572eafb957b144781d2799ae7f8","infoHashBuffer":{"type":"Buffer","data":[149,33,152,85,19,24,229,114,234,251,149,123,20,71,129,210,121,154,231,248]},"announce":[],"urlList":[]}}